<mxfile host="app.diagrams.net" modified="2021-06-03T01:32:49.612Z" agent="5.0 (Macintosh; Intel Mac OS X 10_15_6) AppleWebKit/605.1.15 (KHTML, like Gecko) Version/14.0.3 Safari/605.1.15" etag="7BrAiGUkVUjztz3cly5U" version="14.7.4" type="github">
  <diagram id="PCt1W9JLjjrJ-oyyFMvm" name="Page-1">
    <mxGraphModel dx="843" dy="705" grid="1" gridSize="10" guides="1" tooltips="1" connect="1" arrows="1" fold="1" page="1" pageScale="1" pageWidth="850" pageHeight="1100" math="0" shadow="0">
      <root>
        <mxCell id="0" />
        <mxCell id="1" parent="0" />
        <mxCell id="usNJ6ZZ3LPD9EAqmAFg_-1" value="AWS Cloud" style="outlineConnect=0;html=1;whiteSpace=wrap;fontSize=12;fontStyle=0;shape=mxgraph.aws4.group;grIcon=mxgraph.aws4.group_aws_cloud;strokeColor=#36393d;fillColor=#cce5ff;verticalAlign=top;align=left;spacingLeft=30;dashed=0;" vertex="1" parent="1">
          <mxGeometry x="50" y="40" width="750" height="560" as="geometry" />
        </mxCell>
        <mxCell id="usNJ6ZZ3LPD9EAqmAFg_-2" value="Region" style="outlineConnect=0;html=1;whiteSpace=wrap;fontSize=12;fontStyle=0;shape=mxgraph.aws4.group;grIcon=mxgraph.aws4.group_region;strokeColor=#d6b656;fillColor=#fff2cc;verticalAlign=top;align=left;spacingLeft=30;dashed=1;" vertex="1" parent="1">
          <mxGeometry x="80" y="70" width="700" height="510" as="geometry" />
        </mxCell>
        <mxCell id="usNJ6ZZ3LPD9EAqmAFg_-3" value="VPC" style="points=[[0,0],[0.25,0],[0.5,0],[0.75,0],[1,0],[1,0.25],[1,0.5],[1,0.75],[1,1],[0.75,1],[0.5,1],[0.25,1],[0,1],[0,0.75],[0,0.5],[0,0.25]];outlineConnect=0;html=1;whiteSpace=wrap;fontSize=12;fontStyle=0;shape=mxgraph.aws4.group;grIcon=mxgraph.aws4.group_vpc;strokeColor=#82b366;fillColor=#d5e8d4;verticalAlign=top;align=left;spacingLeft=30;dashed=0;shadow=1;sketch=0;" vertex="1" parent="1">
          <mxGeometry x="120" y="90" width="620" height="460" as="geometry" />
        </mxCell>
        <mxCell id="usNJ6ZZ3LPD9EAqmAFg_-4" value="Availability Zone" style="fillColor=none;strokeColor=#147EBA;dashed=1;verticalAlign=top;fontStyle=0;fontColor=#147EBA;" vertex="1" parent="1">
          <mxGeometry x="150" y="80" width="130" height="480" as="geometry" />
        </mxCell>
        <mxCell id="usNJ6ZZ3LPD9EAqmAFg_-5" value="Availability Zone" style="fillColor=none;strokeColor=#147EBA;dashed=1;verticalAlign=top;fontStyle=0;fontColor=#147EBA;" vertex="1" parent="1">
          <mxGeometry x="530" y="80" width="130" height="480" as="geometry" />
        </mxCell>
        <mxCell id="usNJ6ZZ3LPD9EAqmAFg_-6" value="Private subnet" style="points=[[0,0],[0.25,0],[0.5,0],[0.75,0],[1,0],[1,0.25],[1,0.5],[1,0.75],[1,1],[0.75,1],[0.5,1],[0.25,1],[0,1],[0,0.75],[0,0.5],[0,0.25]];outlineConnect=0;html=1;whiteSpace=wrap;fontSize=12;fontStyle=0;shape=mxgraph.aws4.group;grIcon=mxgraph.aws4.group_security_group;grStroke=0;strokeColor=#6c8ebf;fillColor=#dae8fc;verticalAlign=top;align=left;spacingLeft=30;dashed=0;gradientColor=#7ea6e0;" vertex="1" parent="1">
          <mxGeometry x="150" y="240" width="130" height="130" as="geometry" />
        </mxCell>
        <mxCell id="usNJ6ZZ3LPD9EAqmAFg_-7" value="Private subnet" style="points=[[0,0],[0.25,0],[0.5,0],[0.75,0],[1,0],[1,0.25],[1,0.5],[1,0.75],[1,1],[0.75,1],[0.5,1],[0.25,1],[0,1],[0,0.75],[0,0.5],[0,0.25]];outlineConnect=0;gradientColor=#7ea6e0;html=1;whiteSpace=wrap;fontSize=12;fontStyle=0;shape=mxgraph.aws4.group;grIcon=mxgraph.aws4.group_security_group;grStroke=0;strokeColor=#6c8ebf;fillColor=#dae8fc;verticalAlign=top;align=left;spacingLeft=30;dashed=0;" vertex="1" parent="1">
          <mxGeometry x="150" y="400" width="130" height="130" as="geometry" />
        </mxCell>
        <mxCell id="usNJ6ZZ3LPD9EAqmAFg_-8" value="Private subnet" style="points=[[0,0],[0.25,0],[0.5,0],[0.75,0],[1,0],[1,0.25],[1,0.5],[1,0.75],[1,1],[0.75,1],[0.5,1],[0.25,1],[0,1],[0,0.75],[0,0.5],[0,0.25]];outlineConnect=0;html=1;whiteSpace=wrap;fontSize=12;fontStyle=0;shape=mxgraph.aws4.group;grIcon=mxgraph.aws4.group_security_group;grStroke=0;strokeColor=#6c8ebf;fillColor=#dae8fc;verticalAlign=top;align=left;spacingLeft=30;dashed=0;gradientColor=#7ea6e0;" vertex="1" parent="1">
          <mxGeometry x="530" y="255" width="130" height="130" as="geometry" />
        </mxCell>
        <mxCell id="usNJ6ZZ3LPD9EAqmAFg_-9" value="Private subnet" style="points=[[0,0],[0.25,0],[0.5,0],[0.75,0],[1,0],[1,0.25],[1,0.5],[1,0.75],[1,1],[0.75,1],[0.5,1],[0.25,1],[0,1],[0,0.75],[0,0.5],[0,0.25]];outlineConnect=0;gradientColor=#7ea6e0;html=1;whiteSpace=wrap;fontSize=12;fontStyle=0;shape=mxgraph.aws4.group;grIcon=mxgraph.aws4.group_security_group;grStroke=0;strokeColor=#6c8ebf;fillColor=#dae8fc;verticalAlign=top;align=left;spacingLeft=30;dashed=0;" vertex="1" parent="1">
          <mxGeometry x="530" y="400" width="130" height="130" as="geometry" />
        </mxCell>
        <mxCell id="usNJ6ZZ3LPD9EAqmAFg_-11" value="" style="rounded=1;arcSize=10;dashed=1;strokeColor=#b85450;fillColor=#f8cecc;dashPattern=8 4;strokeWidth=2;gradientColor=#ea6b66;" vertex="1" parent="1">
          <mxGeometry x="160" y="430" width="110" height="100" as="geometry" />
        </mxCell>
        <mxCell id="usNJ6ZZ3LPD9EAqmAFg_-12" value="" style="rounded=1;arcSize=10;dashed=1;strokeColor=#b85450;fillColor=#f8cecc;dashPattern=8 4;strokeWidth=2;gradientColor=#ea6b66;" vertex="1" parent="1">
          <mxGeometry x="540" y="429.5" width="110" height="100" as="geometry" />
        </mxCell>
        <mxCell id="usNJ6ZZ3LPD9EAqmAFg_-15" value="" style="outlineConnect=0;fontColor=#ffffff;fillColor=#6a00ff;strokeColor=#3700CC;dashed=0;verticalLabelPosition=bottom;verticalAlign=top;align=center;html=1;fontSize=12;fontStyle=0;aspect=fixed;pointerEvents=1;shape=mxgraph.aws4.aurora_instance;" vertex="1" parent="1">
          <mxGeometry x="176" y="460" width="58" height="58" as="geometry" />
        </mxCell>
        <mxCell id="usNJ6ZZ3LPD9EAqmAFg_-16" value="" style="outlineConnect=0;fontColor=#ffffff;fillColor=#6a00ff;strokeColor=#3700CC;dashed=0;verticalLabelPosition=bottom;verticalAlign=top;align=center;html=1;fontSize=12;fontStyle=0;aspect=fixed;pointerEvents=1;shape=mxgraph.aws4.aurora_instance;" vertex="1" parent="1">
          <mxGeometry x="556" y="450" width="59" height="59" as="geometry" />
        </mxCell>
      </root>
    </mxGraphModel>
  </diagram>
</mxfile>
